<svg xmlns="http://www.w3.org/2000/svg" version="1.1" xmlns:xlink="http://www.w3.org/1999/xlink" xmlns:svgjs="http://svgjs.dev/svgjs" width="750" height="515" viewBox="0 0 312 312" class="svg-animations " style="background: rgb(255, 255, 255);"><svg viewBox="0 0 219.45103454589844 264.99945068359375" width="100" height="100" x="40.02093505859375" y="106" style="fill: rgb(144, 157, 225);"><svg viewBox="0 0 110 130" xmlns="http://www.w3.org/2000/svg">
<path d="M54.9733 69.8529C69.8109 69.8529 92.8111 53.856 80.017 27.0258C79.3013 25.5244 81.3506 24.2607 82.355 25.5854C103.543 53.5709 80.4175 84.0378 54.9731 84.0378H54.8905C29.4461 84.0378 6.32223 53.5706 27.5086 25.5854C28.513 24.2581 30.5636 25.5231 29.8466 27.0258C17.0522 53.8596 40.4662 69.8529 54.9733 69.8529Z"></path>
<path d="M74.7579 93.26C92.2767 85.0688 109.794 92.6853 109.794 109.842C109.794 121.411 98.906 135.877 81.3908 127.218C80.1805 126.621 80.8021 124.81 82.1294 125.062C92.5086 127.034 99.8096 119.888 99.8096 111.832C99.8096 99.8697 86.3971 100.874 78.426 105.438L35.1041 126.698C17.5853 134.889 0.0684814 127.273 0.0684814 110.116C0.0684814 98.5474 10.9561 84.081 28.4713 92.7399C29.6816 93.3374 29.0599 95.1478 27.7327 94.896C17.3534 92.9242 10.0524 100.07 10.0524 108.127C10.0524 120.089 23.4649 119.084 31.4361 114.52L74.7612 93.2561L74.7579 93.26Z"></path>
<path d="M54.931 0C37.5124 0 34.0355 25.6413 44.3434 35.986C45.4203 37.0666 47.1429 35.6834 46.3229 34.3969C40.8513 25.7976 45.3389 11.4839 54.931 11.5002C64.5232 11.4836 69.011 25.7989 63.539 34.3956C62.719 35.6847 64.4417 37.0679 65.5185 35.9847C75.8264 25.6426 72.3492 0.00195416 54.931 0.00195416V0Z"></path>
</svg></svg><text fill="#909de1" font-family="Raleway" font-size="53px" x="150.02093505859375" y="170.6796112060547"><tspan dy="0" x="150.02093505859375">Salú</tspan></text><text fill="#ffffff" font-family="Open Sans" font-size="24px" x="206" y="191.30097198486328"><tspan dy="0" x="206"></tspan></text></svg>